# xmcd CD database file
#
# Track frame offsets:
#	150
#	18499
#	48560
#	82806
#	100352
#	121334
#	155882
#	178396
#	204874
#
# Disc length: 3071 seconds
#
# Revision: 0
# Processed by: cddbd v1.5.2PL0 Copyright (c) Steve Scherf et al.
# Submitted via: CDex 1.70
#
DISCID=750bfd09
DTITLE=THE JEFF HEALEY BAND - House Of Blues Chicago
DYEAR=2000
DGENRE=Blues
TTITLE0=My Little Girl
TTITLE1=Stop Breakin' Down
TTITLE2=Mean And Evil
TTITLE3=Confidence Man
TTITLE4=Stuck In The Middle
TTITLE5=Like A Hurricane
TTITLE6=Can't get My Hands On You
TTITLE7=Yer Blues
TTITLE8=I Should Have Told You
EXTD=YEAR: 2000
EXTT0=
EXTT1=
EXTT2=
EXTT3=
EXTT4=
EXTT5=
EXTT6=
EXTT7=
EXTT8=
PLAYORDER=
